<svg height="512" viewBox="0 0 64 64" width="512" xmlns="http://www.w3.org/2000/svg"><path d="m6 9h52v34h-52z" fill="#d1e7f8"/><path d="m40 33h-3v-14h3a1 1 0 0 0 0-2h-4a1 1 0 0 0 -1 1v7h-3a1 1 0 0 0 0 2h3v7a1 1 0 0 0 1 1h4a1 1 0 0 0 0-2z" fill="#ff6243"/><path d="m61 6a3 3 0 0 0 -3-3h-52a3 3 0 0 0 0 6h52a3 3 0 0 0 3-3z" fill="#2488ff"/><path d="m3 46a3 3 0 0 0 3 3h52a3 3 0 0 0 0-6h-52a3 3 0 0 0 -3 3z" fill="#2488ff"/><path d="m24.65 28a3.228 3.228 0 0 1 -.24.58l2.37 2.37-2.83 2.83-2.37-2.37a3.228 3.228 0 0 1 -.58.24v3.35h-4v-3.35a3.228 3.228 0 0 1 -.58-.24l-2.37 2.37-2.83-2.83 2.37-2.37a3.228 3.228 0 0 1 -.24-.58h-3.35v-4h3.35a3.228 3.228 0 0 1 .24-.58l-2.37-2.37 2.83-2.83 2.37 2.37a3.228 3.228 0 0 1 .58-.24v-3.35h4v3.35a3.228 3.228 0 0 1 .58.24l2.37-2.37 2.83 2.83-2.37 2.37a3.228 3.228 0 0 1 .24.58h3.35v4z" fill="#ffa733"/><circle cx="19" cy="26" fill="#ff3051" r="3"/><path d="m40 18v5h14v-10h-14z" fill="#ffcd00"/><path d="m54 39v-10h-14v10z" fill="#ffcd00"/><path d="m6 22v21h22c-12.16 0-22-9.393-22-21z" fill="#96c8ef"/><path d="m31 49h2v7h-2z" fill="#939598"/><g fill="#f1f2f2"><path d="m43 35h1a1 1 0 0 0 0-2h-1a1 1 0 0 0 0 2z"/><path d="m47 35h4a1 1 0 0 0 0-2h-4a1 1 0 0 0 0 2z"/><path d="m43 19h1a1 1 0 0 0 0-2h-1a1 1 0 0 0 0 2z"/><path d="m47 19h4a1 1 0 0 0 0-2h-4a1 1 0 0 0 0 2z"/></g><circle cx="32" cy="58" fill="#ff3051" r="3"/></svg>