<svg height="512pt" viewBox="-28 0 512 512" width="512pt" xmlns="http://www.w3.org/2000/svg"><path d="m393.601562 239.800781c-84.601562 44.398438-181-36.199219-152.800781-127 1.800781-5.800781 4-11.402343 6.800781-16.800781-112.601562-19.601562-219.800781 55.800781-239.402343 168.199219-19.597657 112.402343 55.601562 219.800781 168.199219 239.402343 112.601562 19.597657 219.800781-55.601562 239.402343-168.203124 6-34.796876 3.199219-70.597657-8.601562-104-4.398438 3.203124-8.800781 6-13.597657 8.402343zm0 0" fill="#55acd5"/><path d="m237.601562 125.398438c-96.402343-14.199219-186 52.402343-200.203124 148.800781-14.199219 96.402343 52.402343 186 148.800781 200.199219 96.402343 14.203124 186-52.398438 200.199219-148.796876 4-26.601562 1.601562-53.800781-6.597657-79.601562-76.800781 28.199219-157.402343-39.800781-142.199219-120.601562zm0 0" fill="#e9e9ea"/><path d="m211.800781 275c3.398438 0 6.800781.800781 10 2.199219v-92.199219c0-5.601562-4.402343-10-10-10-5.601562 0-10 4.398438-10 10v92.199219c3.199219-1.398438 6.597657-2.199219 10-2.199219zm0 0" fill="#6d6c6b"/><path d="m228.78125 282.066406c-9.371094-9.371094-24.566406-9.371094-33.941406 0-9.371094 9.375-9.371094 24.570313 0 33.941406 9.375 9.371094 24.570312 9.371094 33.941406 0 9.375-9.371093 9.375-24.566406 0-33.941406zm0 0" fill="#e9e9ea"/><path d="m194.800781 316c-2.199219-2.199219-4-4.800781-5.199219-7.601562l-48.601562 48.601562c-4 3.800781-4 10.199219 0 14.199219 3.800781 4 10.199219 4 14.199219 0l49.199219-49.199219c-3.398438-1.398438-6.796876-3.398438-9.597657-6zm0 0" fill="#ea4647"/><path d="m442 145c0 53.570312-43.429688 97-97 97s-97-43.429688-97-97 43.429688-97 97-97 97 43.429688 97 97zm0 0" fill="#ffcd29"/><path d="m444 106.398438c-2-5.199219-7.800781-7.597657-13-5.597657-5 2-7.601562 7.597657-5.800781 12.800781 7 18.398438 7.800781 38.398438 1.800781 57.199219-23 73.800781-124.601562 84-161.199219 14.800781-31.402343-59.601562 14-131.402343 81.597657-128.203124l-12.597657 9.203124c-4.402343 3.199219-5.402343 9.398438-2.199219 14 3.199219 4.597657 9.398438 5.398438 14 2.199219l31.597657-23s.199219-.199219.199219-.199219c4.402343-3.402343 5.203124-9.800781 1.800781-14.203124 0 0 0 0 0-.199219l-24.199219-29.597657c-3.601562-4.203124-9.800781-4.800781-14-1.402343-4.199219 3.601562-4.800781 9.800781-1.398438 14l7.199219 8.800781c-48.601562-1.800781-92.402343 29.199219-107 75.601562-28.199219 91 68.199219 171.597657 152.800781 127 48.199219-25 70-82.402343 50.398438-133.203124zm0 0" fill="#6dcc6d"/><path d="m257.601562 8.601562h-3.601562v-3.601562c0-2.800781-2.199219-5-5-5s-5 2.199219-5 5v3.601562h-3.601562c-2.796876 0-5 2.199219-5 5 0 2.796876 2.203124 5 5 5h3.601562v3.597657c0 2.800781 2.199219 5 5 5s5-2.199219 5-5v-3.597657h3.601562c2.796876 0 5-2.203124 5-5 0-2.800781-2.203124-5-5-5zm0 0" fill="#ffcd29"/><path d="m218 49.199219c0-.398438-.199219-.597657-.199219-1-.199219-.199219-.199219-.597657-.402343-.800781-.199219-.199219-.398438-.597657-.597657-.796876-2-1.800781-5-1.800781-7 0-.199219.199219-.402343.398438-.601562.796876-.398438.601562-.597657 1.203124-.800781 1.800781-.199219.601562-.199219 1.402343 0 2 0 .402343.203124.601562.203124 1 .199219.402343.199219.601562.398438.800781s.398438.601562.601562.800781c2 2 5 2 7 0 .199219-.199219.398438-.402343.597657-.800781.199219-.199219.402343-.601562.402343-.800781.199219-.199219.199219-.597657.199219-1 .398438-.597657.398438-1.199219.199219-2zm0 0" fill="#ea4647"/><path d="m392 475.199219c0-.398438-.199219-.597657-.199219-1-.199219-.199219-.199219-.597657-.402343-.800781-.199219-.199219-.398438-.597657-.597657-.796876-2-1.800781-5-1.800781-7 0-.199219.199219-.402343.398438-.601562.796876-.398438.601562-.597657 1.203124-.800781 1.800781-.199219.601562-.199219 1.402343 0 2 0 .402343.203124.601562.203124 1 .199219.402343.199219.601562.398438.800781s.398438.601562.601562.800781c2 2 5 2 7 0 .199219-.199219.398438-.402343.597657-.800781.199219-.199219.402343-.601562.402343-.800781.199219-.199219.199219-.597657.199219-1 .398438-.597657.398438-1.199219.199219-2zm0 0" fill="#55acd5"/><path d="m431.800781 438.199219c-6.601562-1.199219-11.800781-6.398438-13.199219-13.199219 0-.199219-.203124-.199219-.402343-.199219s-.199219.199219-.199219.199219c-1.199219 6.601562-6.398438 11.800781-13.199219 13.199219-.199219 0-.199219.199219-.199219.402343 0 .199219.199219.199219.199219.199219 6.597657 1.199219 11.800781 6.398438 13.199219 13.199219 0 .199219.199219.199219.398438.199219.203124 0 .203124-.199219.203124-.199219 1.199219-6.601562 6.398438-11.800781 13.199219-13.199219.199219 0 .199219-.199219.199219-.402343 0-.199219 0-.199219-.199219-.199219zm0 0" fill="#6dcc6d"/><path d="m211.398438 144.398438c-2.796876 0-5-2.199219-5-5v-16c0-2.796876 2.203124-5 5-5 2.800781 0 5 2.203124 5 5v16c0 2.800781-2.199219 5-5 5zm0 0"/><path d="m211.398438 481.601562c-2.796876 0-5-2.203124-5-5v-16c0-2.800781 2.203124-5 5-5 2.800781 0 5 2.199219 5 5v16c0 2.597657-2.199219 5-5 5zm0 0"/><path d="m51.800781 305h-16c-2.800781 0-5-2.199219-5-5s2.199219-5 5-5h16c2.800781 0 5 2.199219 5 5s-2.199219 5-5 5zm0 0"/><path d="m387.800781 305h-16c-2.800781 0-5-2.199219-5-5s2.199219-5 5-5h16c2.800781 0 5 2.199219 5 5s-2.199219 5-5 5zm0 0"/><path d="m87.398438 429.398438c-2.796876 0-5-2.199219-5-5 0-1.398438.601562-2.597657 1.402343-3.597657l11.398438-11.402343c2-2 5.199219-2 7 0 2 2 2 5 0 7l-11.398438 11.402343c-.800781 1.199219-2 1.597657-3.402343 1.597657zm0 0"/><path d="m336.398438 429.398438c-1.398438 0-2.597657-.597657-3.597657-1.398438l-11.402343-11.398438c-2-2-2-5.203124 0-7 2-2 5-2 7 0l11.402343 11.398438c2 2 2 5.199219 0 7-.800781 1-2.199219 1.398438-3.402343 1.398438zm0 0"/><path d="m98.800781 191.800781c-1.402343 0-2.601562-.601562-3.601562-1.402343l-11.398438-11.398438c-2-2-2-5.199219 0-7 2-2 5-2 7 0l11.398438 11.398438c2 2 2 5.203124 0 7-.800781 1-2.199219 1.402343-3.398438 1.402343zm0 0"/><path d="m201.800781 282.199219c-2.800781 0-5-2.199219-5-5v-92.199219c0-8.199219 6.800781-15 15-15s15 6.800781 15 15v92.199219c0 2.800781-2.199219 5-5 5-.800781 0-1.402343-.199219-2-.398438-5-2.402343-10.800781-2.402343-15.800781 0-.800781.199219-1.398438.398438-2.199219.398438zm10-12.199219c1.597657 0 3.398438.199219 5 .398438v-85.398438c0-2.800781-2.199219-5-5-5s-5 2.199219-5 5v85.398438c1.800781-.199219 3.398438-.398438 5-.398438zm0 0"/><path d="m211.800781 328c-16 0-29-13-29-29s13-29 29-29 29 13 29 29c0 7.601562-3 15-8.402343 20.398438-5.398438 5.601562-12.796876 8.601562-20.597657 8.601562zm0-48c-10.402343 0-19 8.601562-19 19s8.597657 19 19 19c10.398438 0 19-8.601562 19-19 0-5-2-9.800781-5.601562-13.398438-3.398438-3.601562-8.398438-5.601562-13.398438-5.601562zm0 0"/><path d="m148.199219 379c-8.199219 0-15-6.800781-15-15 0-4 1.601562-7.800781 4.402343-10.601562l48.597657-48.597657c2-2 5.199219-2 7 0 .402343.398438.800781 1 1 1.597657 2.199219 5.203124 6.402343 9 11.800781 10.601562 2.601562.800781 4 3.601562 3.199219 6.199219-.199219.800781-.597657 1.402343-1.199219 2l-49.199219 49.199219c-2.800781 3-6.601562 4.601562-10.601562 4.601562zm40.601562-62.601562-44 44c-2 2-2 5.203124 0 7 2 2 5.199219 2 7 0l44.199219-44.199219c-2.800781-1.800781-5.199219-4-7.199219-6.800781zm0 0"/><path d="m211.800781 512c-117 0-211.800781-95-211.800781-212.199219 0-117 95-211.800781 212.199219-211.800781 12.199219 0 24.402343 1 36.402343 3.199219 2.796876.402343 4.597657 3 4 5.800781 0 .398438-.203124 1-.402343 1.398438-2.597657 5.203124-4.800781 10.402343-6.398438 16-12.402343 40.203124 0 82 32.597657 109 31.601562 27 76.601562 31.800781 113.203124 12.203124 4.597657-2.402343 8.796876-5 13-8 2.199219-1.601562 5.398438-1.203124 7 1 .199219.398438.597657.796876.597657 1.199219 38.800781 110.597657-19.398438 231.597657-130 270.398438-22.800781 7.800781-46.597657 11.800781-70.398438 11.800781zm0-414c-111.402343 0-201.800781 90.601562-201.601562 202s90.601562 201.800781 202 201.601562c111.402343-.203124 201.800781-90.601562 201.601562-202 0-20.402343-3.199219-40.800781-9.199219-60.402343-2.800781 1.800781-5.601562 3.402343-8.601562 5-40.800781 21.601562-88.398438 16.402343-124.199219-13.199219s-49.402343-75.601562-35.800781-119.601562c1.199219-3.796876 2.601562-7.597657 4.199219-11.398438-9.398438-1.398438-18.800781-2-28.398438-2zm181.800781 141.800781"/><path d="m343.601562 257.601562c-26.203124-.203124-51.601562-9.402343-71.601562-26.402343-36-29.800781-49.601562-75.800781-36-119.800781 14-44.796876 54.398438-76.398438 101.199219-79l-.597657-.796876c-5.402343-6.402343-4.402343-15.800781 2-21.203124 6.398438-5.398438 15.796876-4.398438 21.199219 2 0 0 0 .203124.199219.203124l24 29.398438s.199219.199219.199219.199219c2.402343 3.199219 3.601562 7.199219 3 11.199219-.398438 4-2.398438 7.601562-5.597657 10-.203124.203124-.203124.203124-.402343.402343l-31.597657 22.800781c-6.800781 4.796876-16 3.398438-21-3.402343-4.601562-6.398438-3.601562-15.199219 2.398438-20.199219-45 7-76 49.199219-69 94.398438 1.398438 9 4.199219 17.601562 8.398438 25.800781 21.203124 40.402343 71.203124 55.800781 111.601562 34.601562 37-19.402343 53.601562-63.402343 38.601562-102.601562-3-7.800781 1-16.398438 8.796876-19.398438 7.601562-2.800781 16.203124 1 19.203124 8.597657 22 58.402343-7.402343 123.601562-65.800781 145.601562-12.402343 5-25.800781 7.398438-39.199219 7.601562zm0-215.402343c-45 0-84.601562 29.199219-98 72.199219-12.402343 40.203124 0 82 32.597657 109 31.601562 27 76.601562 31.800781 113.199219 12.203124 46-24.203124 66.601562-78.800781 48-127.402343-1-2.597657-4-3.800781-6.597657-2.800781-2.601562 1-3.800781 3.800781-2.800781 6.402343 18.199219 47.597657-5.601562 101-53.199219 119.398438-8 3-16.402343 5-25 5.800781-37.199219 3.800781-73-15.601562-90.199219-49-23.800781-45.398438-6.203124-101.398438 39-125 14.597657-7.601562 30.796876-11.199219 47.199219-10.601562 2.800781.203124 4.800781 2.402343 4.800781 5.203124 0 1.597657-.800781 3-2 3.796876l-12.601562 9.203124c-2.199219 1.597657-2.800781 4.796876-1.199219 7 1.597657 2.199219 4.800781 2.796876 7 1.199219l31.398438-22.800781c.199219 0 .199219-.199219.402343-.199219 1-.800781 1.796876-2 1.796876-3.402343.203124-1.398438-.199219-2.597657-1-3.796876 0 0 0-.203124-.199219-.203124l-24-29.597657c-1.800781-2.199219-5-2.402343-7-.601562-2.199219 1.800781-2.398438 5-.597657 7l7.199219 8.800781c1.800781 2.199219 1.398438 5.199219-.601562 7-1 .800781-2.199219 1.199219-3.398438 1.199219-1.601562 0-2.800781 0-4.199219 0zm0 0"/><path d="m211.800781 481.601562c-100.199219 0-181.601562-81.203124-181.601562-181.601562s81.199219-181.601562 181.601562-181.601562c8.800781 0 17.800781.601562 26.597657 2 2.800781.402343 4.601562 3 4.203124 5.601562v.199219c-6.800781 36 6.199219 72.199219 34.796876 96.402343 28.601562 24.199219 66.402343 31.199219 100.800781 18.597657 2.601562-1 5.402343.402343 6.402343 3v.199219c30.597657 95.601562-22 197.800781-117.402343 228.402343-17.800781 5.800781-36.597657 8.597657-55.398438 8.800781zm0-353.203124c-94.601562 0-171.199219 76.800781-171.199219 171.601562 0 94.601562 76.796876 171.199219 171.597657 171.199219s171.199219-76.800781 171.199219-171.597657c0-16-2.199219-32-6.796876-47.402343-36.402343 11.402343-75.601562 3.402343-105.601562-22-30-25.398438-44.398438-62.597657-39-100.597657-6.800781-.800781-13.398438-1-20.199219-1.203124zm0 0"/><path d="m333.601562 185.800781h-27c-6 0-10.800781-4.800781-10.800781-10.800781v-22.199219c0-6 4.800781-10.800781 10.800781-10.800781h21.199219c.398438 0 .800781-.398438.800781-.800781v-22.199219c0-.398438-.402343-.800781-.800781-.800781h-27c-2.800781 0-5-2.199219-5-5s2.199219-5 5-5h27c6 0 10.800781 4.800781 10.800781 10.800781v22.199219c0 6-4.800781 10.800781-10.800781 10.800781h-21.199219c-.402343 0-.800781.398438-.800781.800781v22.199219c0 .398438.398438.800781.800781.800781h27c2.796876 0 5 2.199219 5 5s-2.402343 5-5 5zm0 0"/><path d="m348.398438 162c-2.796876 0-5-2.199219-5-5 0-.800781.203124-1.601562.601562-2.199219l22.398438-43.800781c1.203124-2.398438 4.402343-3.398438 6.800781-2 2.402343 1.199219 3.402343 4.199219 2.199219 6.601562l-22.398438 43.796876c-1 1.601562-2.800781 2.601562-4.601562 2.601562zm0 0"/><path d="m384.398438 162h-36c-2.796876 0-5-2.199219-5-5s2.203124-5 5-5h36c2.800781 0 5 2.199219 5 5s-2.199219 5-5 5zm0 0"/><path d="m384.398438 185.800781c-2.796876 0-5-2.199219-5-5v-51.199219c0-2.800781 2.203124-5 5-5 2.800781 0 5 2.199219 5 5v51.398438c0 2.601562-2.199219 4.800781-5 4.800781zm0 0"/></svg>