<?xml version="1.0" encoding="iso-8859-1"?>
<!-- Generator: Adobe Illustrator 19.0.0, SVG Export Plug-In . SVG Version: 6.00 Build 0)  -->
<svg xmlns="http://www.w3.org/2000/svg" xmlns:xlink="http://www.w3.org/1999/xlink" version="1.1" id="Layer_1" x="0px" y="0px" viewBox="0 0 512.003 512.003" style="enable-background:new 0 0 512.003 512.003;" xml:space="preserve" width="512" height="512">
<g>
	<path d="M478.644,13.319H271.811c-18.395,0-33.359,14.965-33.359,33.359v6.953h-7.522c-18.395,0-33.359,14.965-33.359,33.359   v67.554l-43.922,43.921c-0.669-12.979-7.465-25.442-19.316-32.805c-19.221-11.939-44.57-6.016-56.509,13.204L37.82,243.259   C-1.55,297.626-0.057,369.221,0.026,372.251c0.105,3.834,1.675,7.482,4.388,10.194L116.257,494.29   c2.842,2.842,6.669,4.394,10.606,4.394c1.01,0,2.026-0.103,3.036-0.311l72.217-14.926c2.867-0.592,5.498-2.011,7.569-4.081   l119.351-119.315c0-0.001,0.001-0.001,0.001-0.002c8.978-8.978,12.916-21.115,11.818-32.866h96.907   c18.395,0,33.359-14.965,33.359-33.359v-6.953h7.522c18.395,0,33.359-14.965,33.359-33.359V46.678   C512.003,28.284,497.039,13.319,478.644,13.319z M482.003,253.511c0,1.853-1.507,3.359-3.359,3.359h-29.277v-63.759   c0-24.635-20.041-44.676-44.676-44.676h-2.875c13.389-8.722,22.265-23.815,22.265-40.952c0-26.938-21.915-48.853-48.853-48.853   s-48.853,21.915-48.853,48.853c0,17.136,8.876,32.229,22.265,40.952h-2.876c-24.635,0-44.676,20.042-44.676,44.676v62.231   c-4.886-4.724-10.654-8.007-16.775-9.822c1.605-12.223-2.277-25.034-11.647-34.405c-1.338-1.338-2.747-2.562-4.214-3.677v-7.715   l35.303-35.303c16-15.999,16-42.032,0-58.032c-9.601-9.6-22.813-13.432-35.303-11.511V46.678c0-1.853,1.507-3.359,3.359-3.359   h206.833c1.853,0,3.359,1.507,3.359,3.359V253.511z M437.762,297.183H323.21c-3.211-2.202-6.665-3.902-10.255-5.088   c0.308-1.729,0.496-3.474,0.582-5.224h127.584v6.953C441.122,295.676,439.615,297.183,437.762,297.183z M307.825,338.836   l0.001-0.001L191.65,454.977l-59.899,12.38L30.078,365.684C30.6,348.88,34.556,298.619,62.39,260.48   c0.22-0.301,0.429-0.611,0.625-0.928l40.291-64.857c3.21-5.168,10.027-6.76,15.195-3.55c5.168,3.21,6.761,10.027,3.551,15.196   l-37.203,59.887c-3.313,5.334-2.953,12.167,0.902,17.124l0.697,0.896c2.641,3.396,6.613,5.495,10.908,5.762   c4.282,0.26,8.495-1.322,11.538-4.365l158.041-158.041c4.303-4.3,11.303-4.302,15.605,0c4.302,4.303,4.302,11.303,0,15.605   l-67.902,67.902c-0.001,0.002-0.003,0.003-0.005,0.005l-25.342,25.341c-5.858,5.858-5.858,15.355,0,21.213   c2.929,2.929,6.768,4.394,10.606,4.394c3.838,0,7.678-1.465,10.606-4.393l25.342-25.341c0,0,0.001-0.002,0.002-0.003   c4.303-4.298,11.301-4.299,15.603,0.002c4.302,4.302,4.302,11.303,0,15.604l-7.887,7.887l-18.587,18.587   c-5.858,5.858-5.858,15.355,0,21.213c2.929,2.929,6.768,4.393,10.606,4.393s7.678-1.464,10.606-4.394l18.587-18.587   c4.302-4.302,11.302-4.302,15.605,0c4.302,4.302,4.302,11.303,0,15.605l-9.378,9.378l-16.153,16.154   c-5.858,5.858-5.858,15.355,0,21.213c2.929,2.929,6.768,4.393,10.606,4.393s7.678-1.464,10.606-4.394l16.153-16.154   c4.303-4.302,11.303-4.302,15.605,0C312.126,327.533,312.126,334.533,307.825,338.836z M230.929,83.632h7.522v30.031   l-10.882,10.882V86.99C227.57,85.138,229.077,83.632,230.929,83.632z M375.228,88.632c10.396,0,18.853,8.457,18.853,18.853   s-8.457,18.853-18.853,18.853s-18.853-8.457-18.853-18.853S364.833,88.632,375.228,88.632z M419.367,256.871h-88.278v-63.759   c0-8.093,6.584-14.676,14.676-14.676h58.927c8.092,0,14.676,6.583,14.676,14.676V256.871z"/>
</g>















</svg>
