<svg height="512" viewBox="0 0 64 64" width="512" xmlns="http://www.w3.org/2000/svg"><path d="m17 20h2v2h-2z"/><path d="m32 52h-6v9h12v-9zm-2 7h-1a1 1 0 0 1 0-2h1a1 1 0 0 1 0 2zm0-3h-1a1 1 0 0 1 0-2h1a1 1 0 0 1 0 2zm5 3h-2a1 1 0 0 1 0-2h2a1 1 0 0 1 0 2zm0-3h-2a1 1 0 0 1 0-2h2a1 1 0 0 1 0 2z"/><circle cx="32" cy="21" r="6"/><path d="m15 18v6h4.63a1 1 0 0 1 .953.7 12.328 12.328 0 0 0 .731 1.776 1 1 0 0 1 -.187 1.154l-3.273 3.27 4.246 4.246 3.273-3.273a1 1 0 0 1 1.154-.187 12.323 12.323 0 0 0 1.776.731 1 1 0 0 1 .7.953v4.63h6v-4.63a1 1 0 0 1 .7-.953 12.323 12.323 0 0 0 1.776-.731 1 1 0 0 1 1.154.187l3.267 3.273 4.246-4.246-3.273-3.273a1 1 0 0 1 -.187-1.154 12.328 12.328 0 0 0 .731-1.776 1 1 0 0 1 .953-.7h4.63v-5.997h-4.63a1 1 0 0 1 -.953-.7 12.328 12.328 0 0 0 -.731-1.776 1 1 0 0 1 .187-1.154l3.273-3.27-4.246-4.246-3.273 3.273a1 1 0 0 1 -1.154.187 12.323 12.323 0 0 0 -1.773-.731 1 1 0 0 1 -.7-.953v-4.63h-6v4.63a1 1 0 0 1 -.7.953 12.323 12.323 0 0 0 -1.776.731 1 1 0 0 1 -1.154-.187l-3.27-3.273-4.246 4.246 3.273 3.273a1 1 0 0 1 .187 1.154 12.328 12.328 0 0 0 -.731 1.776 1 1 0 0 1 -.953.7zm30 2h2v2h-2zm-12 16h-2v-2h2zm8.9-26.313 1.413 1.413-1.413 1.415-1.415-1.415zm0 19.8 1.413 1.413-1.413 1.413-1.415-1.413zm-10.9-23.487h2v2h-2zm1 7a8 8 0 1 1 -8 8 8.009 8.009 0 0 1 8-8zm-11.313-1.9 1.413-1.413 1.415 1.413-1.415 1.415zm1.413 18.385 1.415 1.415-1.415 1.413-1.413-1.413z"/><path d="m55 52h-6v9h12v-9zm-2 7h-1a1 1 0 0 1 0-2h1a1 1 0 0 1 0 2zm0-3h-1a1 1 0 0 1 0-2h1a1 1 0 0 1 0 2zm5 3h-1a1 1 0 0 1 0-2h1a1 1 0 0 1 0 2zm0-3h-1a1 1 0 0 1 0-2h1a1 1 0 0 1 0 2z"/><path d="m9 52h-6v9h12v-9zm3 7h-6a1 1 0 0 1 0-2h6a1 1 0 0 1 0 2zm0-3h-6a1 1 0 0 1 0-2h6a1 1 0 0 1 0 2z"/><path d="m33 45v-5h-2v5h-23v5h2v-3h21v3h2v-3h21v3h2v-5z"/><path d="m57 4h-3.277a2 2 0 1 0 0 2h3.277a3 3 0 0 1 3 3v27a3 3 0 0 1 -3 3h-4.277a2 2 0 1 0 0 2h4.277a5.006 5.006 0 0 0 5-5v-27a5.006 5.006 0 0 0 -5-5z"/><path d="m13 38a1.994 1.994 0 0 0 -1.723 1h-4.277a3 3 0 0 1 -3-3v-27a3 3 0 0 1 3-3h3.277a2 2 0 1 0 0-2h-3.277a5.006 5.006 0 0 0 -5 5v27a5.006 5.006 0 0 0 5 5h4.277a2 2 0 1 0 1.723-3z"/></svg>